<mxfile host="Electron" agent="Mozilla/5.0 (X11; Linux x86_64) AppleWebKit/537.36 (KHTML, like Gecko) draw.io/24.7.5 Chrome/126.0.6478.183 Electron/31.3.0 Safari/537.36" version="24.7.5">
  <diagram name="Page-1" id="VNUi4kRXGUo8amX7K60P">
    <mxGraphModel dx="1114" dy="814" grid="1" gridSize="10" guides="1" tooltips="1" connect="1" arrows="1" fold="1" page="1" pageScale="1" pageWidth="1654" pageHeight="1169" math="0" shadow="0">
      <root>
        <mxCell id="0" />
        <mxCell id="1" parent="0" />
        <mxCell id="yvmYC0Iy8trzrEOFVXSy-5" style="edgeStyle=orthogonalEdgeStyle;rounded=0;orthogonalLoop=1;jettySize=auto;html=1;entryX=0;entryY=0.5;entryDx=0;entryDy=0;" edge="1" parent="1" source="yvmYC0Iy8trzrEOFVXSy-2" target="yvmYC0Iy8trzrEOFVXSy-3">
          <mxGeometry relative="1" as="geometry" />
        </mxCell>
        <mxCell id="yvmYC0Iy8trzrEOFVXSy-2" value="index.js" style="swimlane;whiteSpace=wrap;html=1;" vertex="1" parent="1">
          <mxGeometry x="231" y="20" width="380" height="190" as="geometry" />
        </mxCell>
        <mxCell id="2L9Sccwpif2Qkfgf2nkq-1" value="&lt;div&gt;import http from &#39;http&#39;&lt;/div&gt;&lt;div&gt;import { Server } from &#39;socket.io&#39;&lt;/div&gt;&lt;div&gt;import { Router } from &#39;./routes/routes.js&#39;&lt;/div&gt;&lt;div&gt;&lt;font color=&quot;#0066cc&quot;&gt;import * as &#39;VelbusLib from &#39;./modules/VelbusLib.mjs&#39;&lt;/font&gt;&lt;/div&gt;&lt;div&gt;&lt;br&gt;&lt;/div&gt;&lt;div&gt;&lt;span style=&quot;background-color: initial;&quot;&gt;app.use(&#39;/&#39;, Router)&lt;/span&gt;&lt;br&gt;&lt;/div&gt;" style="rounded=0;whiteSpace=wrap;html=1;align=left;" parent="yvmYC0Iy8trzrEOFVXSy-2" vertex="1">
          <mxGeometry y="23" width="380" height="160" as="geometry" />
        </mxCell>
        <mxCell id="yvmYC0Iy8trzrEOFVXSy-8" style="edgeStyle=orthogonalEdgeStyle;rounded=0;orthogonalLoop=1;jettySize=auto;html=1;entryX=0.5;entryY=0;entryDx=0;entryDy=0;" edge="1" parent="1" source="yvmYC0Iy8trzrEOFVXSy-3" target="yvmYC0Iy8trzrEOFVXSy-6">
          <mxGeometry relative="1" as="geometry" />
        </mxCell>
        <mxCell id="yvmYC0Iy8trzrEOFVXSy-3" value="route.js" style="swimlane;whiteSpace=wrap;html=1;" vertex="1" parent="1">
          <mxGeometry x="730" y="20" width="380" height="190" as="geometry" />
        </mxCell>
        <mxCell id="yvmYC0Iy8trzrEOFVXSy-4" value="&lt;div&gt;&lt;div&gt;import * as express from &#39;express&#39;&lt;/div&gt;&lt;div&gt;const Router = express.Router()&lt;/div&gt;&lt;div&gt;&lt;br&gt;&lt;/div&gt;&lt;div&gt;import * as CtrlModules from &#39;../controllers/CtrlModules.mjs&#39;&lt;/div&gt;&lt;div&gt;&lt;br&gt;&lt;/div&gt;&lt;div&gt;Router.get(&#39;/modules&#39;, (req, res) =&amp;gt; CtrlModules.getModules(req, res))&lt;/div&gt;&lt;/div&gt;" style="rounded=0;whiteSpace=wrap;html=1;align=left;" vertex="1" parent="yvmYC0Iy8trzrEOFVXSy-3">
          <mxGeometry y="23" width="380" height="160" as="geometry" />
        </mxCell>
        <mxCell id="yvmYC0Iy8trzrEOFVXSy-6" value="CtrlModules.mjs" style="swimlane;whiteSpace=wrap;html=1;" vertex="1" parent="1">
          <mxGeometry x="730" y="280" width="380" height="190" as="geometry" />
        </mxCell>
        <mxCell id="yvmYC0Iy8trzrEOFVXSy-7" value="&lt;div&gt;&lt;div&gt;export function getModules(req, res,&amp;nbsp;&lt;b&gt;subModuleList&lt;/b&gt;) {&lt;/div&gt;&lt;div&gt;&amp;nbsp; &amp;nbsp; console.log(&quot;*** API CTRL-Module : getmodules ***&quot;)&lt;/div&gt;&lt;div&gt;&amp;nbsp; &amp;nbsp; const json = JSON.stringify(Object.fromEntries(&lt;b&gt;subModuleList&lt;/b&gt;));&lt;/div&gt;&lt;div&gt;&amp;nbsp; &amp;nbsp; res.send(json);&lt;/div&gt;&lt;div&gt;}&lt;/div&gt;&lt;/div&gt;" style="rounded=0;whiteSpace=wrap;html=1;align=left;" vertex="1" parent="yvmYC0Iy8trzrEOFVXSy-6">
          <mxGeometry y="23" width="380" height="160" as="geometry" />
        </mxCell>
        <mxCell id="yvmYC0Iy8trzrEOFVXSy-12" style="edgeStyle=orthogonalEdgeStyle;rounded=0;orthogonalLoop=1;jettySize=auto;html=1;entryX=0.5;entryY=1;entryDx=0;entryDy=0;" edge="1" parent="1" source="yvmYC0Iy8trzrEOFVXSy-10" target="yvmYC0Iy8trzrEOFVXSy-2">
          <mxGeometry relative="1" as="geometry" />
        </mxCell>
        <mxCell id="yvmYC0Iy8trzrEOFVXSy-10" value="VelbusLib.mjs" style="swimlane;whiteSpace=wrap;html=1;" vertex="1" parent="1">
          <mxGeometry x="231" y="280" width="380" height="250" as="geometry" />
        </mxCell>
        <mxCell id="yvmYC0Iy8trzrEOFVXSy-11" value="&lt;div&gt;let subModuleList = new Map()&lt;/div&gt;&lt;div&gt;&lt;br&gt;&lt;/div&gt;&lt;div&gt;&lt;div&gt;function setSubModuleList(addresspart, module) {&lt;/div&gt;&lt;div&gt;&lt;span style=&quot;white-space: normal;&quot;&gt;&lt;span style=&quot;white-space:pre&quot;&gt;&#x9;&lt;/span&gt;subModuleList.set(addresspart, module)&lt;/span&gt;&lt;/div&gt;&lt;div&gt;}&lt;/div&gt;&lt;div&gt;function getSubModuleList(addresspart) {&lt;/div&gt;&lt;div&gt;&lt;span style=&quot;white-space: normal;&quot;&gt;&lt;span style=&quot;white-space:pre&quot;&gt;&#x9;&lt;/span&gt;return subModuleList.get(addresspart)&lt;/span&gt;&lt;/div&gt;&lt;div&gt;}&lt;/div&gt;&lt;div&gt;function fullSubModuleList() {&lt;/div&gt;&lt;div&gt;&lt;span style=&quot;white-space: normal;&quot;&gt;&lt;span style=&quot;white-space:pre&quot;&gt;&#x9;&lt;/span&gt;return subModuleList&lt;/span&gt;&lt;/div&gt;&lt;div&gt;}&lt;/div&gt;&lt;div&gt;function lenSubModuleList() {&lt;/div&gt;&lt;div&gt;&lt;span style=&quot;white-space: normal;&quot;&gt;&lt;span style=&quot;white-space:pre&quot;&gt;&#x9;&lt;/span&gt;console.log(&quot;subModuleList longueur&quot;, subModuleList.size)&lt;/span&gt;&lt;/div&gt;&lt;div&gt;&lt;span style=&quot;white-space: normal;&quot;&gt;&lt;span style=&quot;white-space:pre&quot;&gt;&#x9;&lt;/span&gt;return subModuleList.size&lt;/span&gt;&lt;/div&gt;&lt;div&gt;}&lt;/div&gt;&lt;/div&gt;" style="rounded=0;whiteSpace=wrap;html=1;align=left;" vertex="1" parent="yvmYC0Iy8trzrEOFVXSy-10">
          <mxGeometry y="23" width="380" height="227" as="geometry" />
        </mxCell>
        <mxCell id="yvmYC0Iy8trzrEOFVXSy-13" style="edgeStyle=orthogonalEdgeStyle;rounded=0;orthogonalLoop=1;jettySize=auto;html=1;entryX=0.003;entryY=0.063;entryDx=0;entryDy=0;entryPerimeter=0;" edge="1" parent="1" source="yvmYC0Iy8trzrEOFVXSy-11" target="yvmYC0Iy8trzrEOFVXSy-6">
          <mxGeometry relative="1" as="geometry" />
        </mxCell>
        <mxCell id="yvmYC0Iy8trzrEOFVXSy-15" value="TeleInfo&lt;div&gt;(Status)&lt;/div&gt;" style="swimlane;fontStyle=0;align=center;verticalAlign=top;childLayout=stackLayout;horizontal=1;startSize=40;horizontalStack=0;resizeParent=1;resizeParentMax=0;resizeLast=0;collapsible=0;marginBottom=0;html=1;whiteSpace=wrap;" vertex="1" parent="1">
          <mxGeometry x="150" y="590" width="140" height="150" as="geometry" />
        </mxCell>
        <mxCell id="yvmYC0Iy8trzrEOFVXSy-16" value="- index&lt;div&gt;- power&lt;/div&gt;&lt;div&gt;- indexHC (prod: indexNonConso)&lt;/div&gt;&lt;div&gt;- powerMax&lt;/div&gt;&lt;div&gt;- powerMaxDate&lt;/div&gt;&lt;div&gt;- timestamp&lt;/div&gt;" style="text;html=1;strokeColor=none;fillColor=none;align=left;verticalAlign=middle;spacingLeft=4;spacingRight=4;overflow=hidden;rotatable=0;points=[[0,0.5],[1,0.5]];portConstraint=eastwest;whiteSpace=wrap;" vertex="1" parent="yvmYC0Iy8trzrEOFVXSy-15">
          <mxGeometry y="40" width="140" height="110" as="geometry" />
        </mxCell>
      </root>
    </mxGraphModel>
  </diagram>
</mxfile>
